  <svg
    width="1366"
    height="741"
    viewBox="0 0 1366 741"
    fill="none"
    xmlns="http://www.w3.org/2000/svg"
  >
    <g opacity="0.2">
      <path
        d="M1326.33 -37.2471C1325.48 -38.4397 1323.45 -38.5334 1322.56 -36.9536L1314.96 -21.0031C1314.51 -20.2132 1314.57 -19.4624 1315.13 -18.7508L1330.21 2.73512C1330.79 3.69701 1331.56 3.88856 1332.31 3.82985L1349.41 2.49915C1351.17 2.36217 1352.58 0.993472 1351.65 -1.20013L1326.33 -37.2471Z"
        fill="#E3E3E3"
      />
      <path
        d="M1313.92 -11.607C1312.82 -12.78 1310.8 -12.6235 1310.15 -11.3135L1303.2 3.32707C1302.96 3.59689 1302.91 6.11902 1305.44 6.17359L1321.28 4.94073C1322.53 4.84289 1324.19 3.45462 1323.03 1.53085L1313.92 -11.607Z"
        fill="#E3E3E3"
      />
      <path
        d="M1291.68 -43.8651L1281.99 -57.9648C1281.37 -59.4272 1279.07 -59.7516 1277.97 -57.6517L1246.86 7.2102C1245.97 8.79002 1247.11 10.4635 1249.14 10.5572L1266.23 9.22654C1267.49 9.12869 1267.93 8.33879 1268.36 7.29862L1291.88 -41.3625C1292.09 -41.8826 1292.53 -42.6725 1291.68 -43.8651Z"
        fill="#E3E3E3"
      />
      <path
        d="M1307.92 -20.4555L1297.95 -34.786C1297.08 -36.2288 1294.82 -36.0527 1294.16 -34.7427L1275.03 5.26857C1274.37 6.57856 1275.26 8.27165 1277.29 8.36535L1294.63 7.01508C1295.37 6.70612 1296.1 6.39715 1296.55 5.60725L1308.07 -18.4535C1308.29 -18.9736 1308.5 -19.4936 1307.92 -20.4555Z"
        fill="#E3E3E3"
      />
      <path
        d="M1152.01 -58.1678L1134.67 -56.8175C1133.41 -56.7197 1132.95 -56.18 1132.52 -55.1399L1108.58 -5.43863C1108.37 -4.91855 1107.92 -4.12864 1108.75 -3.18633L1118.45 10.9134C1119.07 12.3758 1121.37 12.7002 1122.47 10.6003L1154.26 -55.3213C1154.91 -56.6313 1154.02 -58.3244 1152.01 -58.1678Z"
        fill="#E3E3E3"
      />
      <path
        d="M1091.34 -18.9511C1090.49 -20.1437 1088.46 -20.2374 1087.57 -18.6576L1079.96 -2.70705C1079.52 -1.91714 1079.58 -1.16637 1080.14 -0.454741L1095.21 21.0311C1095.79 21.993 1096.57 22.1846 1097.32 22.1259L1114.41 20.7952C1116.17 20.6582 1117.58 19.2895 1116.65 17.0959L1091.34 -18.9511Z"
        fill="#E3E3E3"
      />
      <path
        d="M1078.93 6.68906C1077.82 5.51605 1075.81 5.67261 1075.16 6.98259L1068.2 21.6231C1067.97 21.893 1067.92 24.4151 1070.45 24.4697L1086.28 23.2368C1087.54 23.139 1089.2 21.7507 1088.04 19.8269L1078.93 6.68906Z"
        fill="#E3E3E3"
      />
      <path
        d="M1056.69 -25.5691L1046.99 -39.6689C1046.38 -41.1313 1044.07 -41.4557 1042.97 -39.3558L1011.86 25.5062C1010.97 27.086 1012.12 28.7595 1014.15 28.8532L1031.24 27.5225C1032.49 27.4247 1032.94 26.6347 1033.36 25.5946L1056.88 -23.0665C1057.1 -23.5866 1057.54 -24.3765 1056.69 -25.5691Z"
        fill="#E3E3E3"
      />
      <path
        d="M1072.93 -2.15951L1062.96 -16.49C1062.09 -17.9328 1059.83 -17.7567 1059.17 -16.4467L1040.03 23.5646C1039.38 24.8746 1040.27 26.5677 1042.3 26.6614L1059.64 25.3111C1060.37 25.0021 1061.11 24.6932 1061.55 23.9033L1073.08 -0.157463C1073.29 -0.677545 1073.51 -1.19763 1072.93 -2.15951Z"
        fill="#E3E3E3"
      />
      <path
        d="M917.02 -39.8719L899.677 -38.5216C898.42 -38.4238 897.957 -37.8841 897.532 -36.844L873.586 12.8573C873.374 13.3773 872.929 14.1673 873.761 15.1096L883.457 29.2093C884.076 30.6717 886.377 30.9961 887.478 28.8962L919.264 -37.0254C919.921 -38.3354 919.031 -40.0285 917.02 -39.8719Z"
        fill="#E3E3E3"
      />
      <path
        d="M856.35 -0.655165C855.499 -1.84774 853.469 -1.94144 852.58 -0.361628L844.972 15.5889C844.527 16.3788 844.586 17.1296 845.147 17.8412L860.222 39.3271C860.802 40.289 861.576 40.4805 862.33 40.4218L879.421 39.0911C881.181 38.9541 882.591 37.5855 881.662 35.3919L856.35 -0.655165Z"
        fill="#E3E3E3"
      />
      <path
        d="M843.933 24.985C842.83 23.812 840.82 23.9685 840.163 25.2785L833.211 39.919C832.979 40.1889 832.923 42.711 835.456 42.7656L851.29 41.5327C852.547 41.4349 854.209 40.0466 853.048 38.1228L843.933 24.985Z"
        fill="#E3E3E3"
      />
      <path
        d="M857.506 -8.55047L867.472 5.77998C868.362 7.47306 870.605 7.04669 871.261 5.7367L890.862 -34.8142C891.751 -36.394 890.358 -38.048 888.598 -37.911L871.004 -36.5412C870.501 -36.502 869.516 -36.1735 869.091 -35.1333L857.35 -10.5525C857.389 -10.052 857.196 -9.28167 857.506 -8.55047Z"
        fill="#E3E3E3"
      />
      <path
        d="M821.697 -7.27314L812.002 -21.3729C811.383 -22.8353 809.082 -23.1597 807.981 -21.0598L776.871 43.8021C775.982 45.3819 777.124 47.0555 779.154 47.1492L796.245 45.8185C797.502 45.7206 797.946 44.9307 798.371 43.8905L821.892 -4.77058C822.105 -5.29066 822.549 -6.08057 821.697 -7.27314Z"
        fill="#E3E3E3"
      />
      <path
        d="M839.148 8.99242C840 10.185 842.03 10.2787 842.918 8.69889L850.527 -7.25166C850.971 -8.04157 850.913 -8.79234 850.351 -9.50397L834.425 -32.1824C833.593 -33.1247 833.09 -33.0856 832.336 -33.0269L815.245 -31.6962C813.988 -31.5984 812.597 -29.9794 813.487 -28.2863L839.148 8.99242Z"
        fill="#E3E3E3"
      />
      <path
        d="M837.934 16.1364L827.968 1.806C827.097 0.363169 824.835 0.539287 824.178 1.84928L805.041 41.8606C804.384 43.1705 805.275 44.8636 807.305 44.9573L824.648 43.6071C825.382 43.2981 826.117 42.9891 826.561 42.1992L838.09 18.1385C838.302 17.6184 838.514 17.0983 837.934 16.1364Z"
        fill="#E3E3E3"
      />
      <path
        d="M682.028 -21.576L664.685 -20.2257C663.428 -20.1278 662.964 -19.5882 662.54 -18.548L638.594 31.1532C638.381 31.6733 637.937 32.4632 638.769 33.4055L648.464 47.5053C649.084 48.9677 651.385 49.2921 652.486 47.1922L684.272 -18.7294C684.929 -20.0394 684.038 -21.7325 682.028 -21.576Z"
        fill="#E3E3E3"
      />
      <path
        d="M621.358 17.6407C620.507 16.4482 618.476 16.3545 617.588 17.9343L609.979 33.8848C609.535 34.6747 609.594 35.4255 610.155 36.1371L625.23 57.623C625.81 58.5849 626.584 58.7764 627.338 58.7177L644.429 57.387C646.189 57.25 647.599 55.8814 646.67 53.6878L621.358 17.6407Z"
        fill="#E3E3E3"
      />
      <path
        d="M608.941 43.2808C607.838 42.1078 605.828 42.2643 605.171 43.5743L598.219 58.2149C597.987 58.4847 597.931 61.0068 600.464 61.0614L616.298 59.8286C617.555 59.7307 619.217 58.3424 618.056 56.4187L608.941 43.2808Z"
        fill="#E3E3E3"
      />
      <path
        d="M616.515 0.896855C617.366 2.08943 619.396 2.18313 620.285 0.603318L627.256 -13.787C628.125 -15.6171 626.249 -16.9816 624.992 -16.8838L609.158 -15.6509C606.664 -15.205 607.11 -12.722 607.381 -12.4913L616.515 0.896855Z"
        fill="#E3E3E3"
      />
      <path
        d="M622.514 9.74561L632.48 24.0761C633.37 25.7691 635.613 25.3428 636.269 24.0328L655.87 -16.5181C656.759 -18.098 655.366 -19.7519 653.606 -19.6149L636.012 -18.2451C635.509 -18.2059 634.524 -17.8774 634.099 -16.8372L622.358 7.74356C622.397 8.24408 622.204 9.01441 622.514 9.74561Z"
        fill="#E3E3E3"
      />
      <path
        d="M586.705 11.0226L577.01 -3.07719C576.39 -4.53959 574.089 -4.86398 572.988 -2.76409L541.878 62.0978C540.99 63.6777 542.131 65.3512 544.162 65.4449L561.253 64.1142C562.51 64.0163 562.954 63.2264 563.379 62.1863L586.9 13.5251C587.112 13.0051 587.556 12.2151 586.705 11.0226Z"
        fill="#E3E3E3"
      />
      <path
        d="M604.156 27.2883C605.007 28.4808 607.038 28.5745 607.926 26.9947L615.535 11.0442C615.979 10.2543 615.92 9.5035 615.359 8.79187L599.433 -13.8866C598.601 -14.8289 598.098 -14.7898 597.344 -14.7311L580.253 -13.4004C578.996 -13.3025 577.605 -11.6836 578.495 -9.99048L604.156 27.2883Z"
        fill="#E3E3E3"
      />
      <path
        d="M602.941 34.4324L592.975 20.102C592.104 18.6591 589.842 18.8352 589.186 20.1452L570.048 60.1565C569.392 61.4665 570.282 63.1596 572.312 63.2533L589.655 61.903C590.39 61.5941 591.124 61.2851 591.569 60.4952L603.097 36.4345C603.31 35.9144 603.522 35.3943 602.941 34.4324Z"
        fill="#E3E3E3"
      />
      <path
        d="M447.035 -3.28012L429.692 -1.92985C428.436 -1.832 427.972 -1.29235 427.547 -0.252191L403.601 49.4491C403.389 49.9691 402.945 50.7591 403.777 51.7014L413.472 65.8011C414.092 67.2635 416.393 67.5879 417.494 65.488L449.28 -0.433599C449.936 -1.74359 449.046 -3.43667 447.035 -3.28012Z"
        fill="#E3E3E3"
      />
      <path
        d="M386.365 35.9366C385.514 34.7441 383.484 34.6504 382.595 36.2302L374.987 52.1807C374.542 52.9706 374.601 53.7214 375.162 54.433L390.237 75.9189C390.818 76.8808 391.591 77.0723 392.345 77.0136L409.437 75.6829C411.196 75.5459 412.607 74.1772 411.677 71.9837L386.365 35.9366Z"
        fill="#E3E3E3"
      />
      <path
        d="M373.949 61.5767C372.846 60.4037 370.835 60.5602 370.179 61.8702L363.227 76.5108C362.995 76.7806 362.939 79.3027 365.472 79.3573L381.306 78.1245C382.563 78.0266 384.225 76.6383 383.064 74.7146L373.949 61.5767Z"
        fill="#E3E3E3"
      />
      <path
        d="M381.522 19.1928C382.374 20.3853 384.404 20.479 385.292 18.8992L392.264 4.50892C393.133 2.67884 391.256 1.31429 390 1.41214L374.165 2.64499C371.671 3.09094 372.117 5.57393 372.388 5.80462L381.522 19.1928Z"
        fill="#E3E3E3"
      />
      <path
        d="M387.521 28.0414L397.487 42.3719C398.378 44.065 400.62 43.6386 401.277 42.3286L420.878 1.7777C421.766 0.197887 420.373 -1.45606 418.614 -1.31908L401.02 0.0507606C400.517 0.0898989 399.531 0.418429 399.106 1.45859L387.365 26.0394C387.404 26.5399 387.211 27.3102 387.521 28.0414Z"
        fill="#E3E3E3"
      />
      <path
        d="M351.713 29.3187L342.017 15.2189C341.398 13.7565 339.097 13.4321 337.996 15.532L306.886 80.3939C305.997 81.9737 307.139 83.6473 309.169 83.741L326.261 82.4103C327.517 82.3124 327.962 81.5225 328.386 80.4823L351.908 31.8212C352.12 31.3011 352.564 30.5112 351.713 29.3187Z"
        fill="#E3E3E3"
      />
      <path
        d="M369.164 45.5842C370.015 46.7767 372.046 46.8704 372.934 45.2906L380.543 29.3401C380.987 28.5502 380.928 27.7994 380.367 27.0878L364.441 4.40931C363.609 3.46699 363.106 3.50613 362.352 3.56483L345.261 4.89553C344.004 4.99338 342.613 6.61233 343.503 8.30542L369.164 45.5842Z"
        fill="#E3E3E3"
      />
      <path
        d="M367.949 52.7282L357.983 38.3978C357.112 36.955 354.85 37.1311 354.193 38.4411L335.056 78.4523C334.399 79.7623 335.29 81.4554 337.32 81.5491L354.663 80.1989C355.397 79.8899 356.132 79.5809 356.576 78.791L368.105 54.7303C368.317 54.2102 368.53 53.6901 367.949 52.7282Z"
        fill="#E3E3E3"
      />
      <path
        d="M212.043 15.0159L194.7 16.3662C193.443 16.464 192.98 17.0037 192.555 18.0438L168.609 67.7451C168.397 68.2652 167.952 69.0551 168.784 69.9974L178.48 84.0971C179.099 85.5595 181.4 85.8839 182.501 83.784L214.288 17.8624C214.944 16.5524 214.054 14.8593 212.043 15.0159Z"
        fill="#E3E3E3"
      />
      <path
        d="M151.373 54.2327C150.522 53.0401 148.491 52.9464 147.603 54.5263L139.994 70.4768C139.55 71.2667 139.608 72.0175 140.17 72.7291L155.245 94.215C155.825 95.1769 156.599 95.3684 157.353 95.3097L174.444 93.979C176.204 93.842 177.614 92.4733 176.685 90.2797L151.373 54.2327Z"
        fill="#E3E3E3"
      />
      <path
        d="M138.957 79.8728C137.854 78.6998 135.843 78.8563 135.186 80.1663L128.235 94.8069C128.003 95.0767 127.946 97.5988 130.479 97.6534L146.314 96.4205C147.571 96.3227 149.233 94.9344 148.071 93.0106L138.957 79.8728Z"
        fill="#E3E3E3"
      />
      <path
        d="M146.53 37.4888C147.381 38.6813 149.411 38.7751 150.3 37.1952L157.271 22.8049C158.14 20.9749 156.264 19.6103 155.007 19.7082L139.173 20.941C136.679 21.387 137.125 23.87 137.396 24.1006L146.53 37.4888Z"
        fill="#E3E3E3"
      />
      <path
        d="M152.529 46.3375L162.495 60.6679C163.385 62.361 165.628 61.9346 166.284 60.6246L185.885 20.0737C186.774 18.4939 185.381 16.84 183.621 16.9769L166.027 18.3468C165.524 18.3859 164.539 18.7144 164.114 19.7546L152.373 44.3354C152.412 44.8359 152.219 45.6063 152.529 46.3375Z"
        fill="#E3E3E3"
      />
      <path
        d="M116.72 47.6146L107.025 33.5148C106.405 32.0524 104.104 31.7281 103.003 33.828L71.8933 98.6899C71.0048 100.27 72.1466 101.943 74.1768 102.037L91.2683 100.706C92.525 100.608 92.9692 99.8185 93.394 98.7783L116.915 50.1172C117.127 49.5971 117.572 48.8072 116.72 47.6146Z"
        fill="#E3E3E3"
      />
      <path
        d="M134.172 63.8802C135.023 65.0728 137.053 65.1665 137.942 63.5866L145.55 47.6361C145.994 46.8462 145.936 46.0954 145.375 45.3838L129.449 22.7053C128.617 21.763 128.114 21.8021 127.36 21.8609L110.268 23.1916C109.012 23.2894 107.621 24.9084 108.511 26.6014L134.172 63.8802Z"
        fill="#E3E3E3"
      />
      <path
        d="M132.957 71.0242L122.991 56.6938C122.12 55.2509 119.857 55.427 119.201 56.737L100.064 96.7483C99.407 98.0583 100.297 99.7514 102.328 99.8451L119.67 98.4948C120.405 98.1859 121.14 97.8769 121.584 97.087L133.113 73.0263C133.325 72.5062 133.537 71.9861 132.957 71.0242Z"
        fill="#E3E3E3"
      />
      <path
        d="M1269.51 -67.3157L1252.17 -65.9654C1250.91 -65.8676 1250.44 -65.3279 1250.02 -64.2878L1226.07 -14.5865C1225.86 -14.0664 1225.42 -13.2765 1226.25 -12.3342L1235.95 1.76554C1236.56 3.22794 1238.87 3.55233 1239.97 1.45244L1271.75 -64.4692C1272.41 -65.7792 1271.52 -67.4723 1269.51 -67.3157Z"
        fill="#E3E3E3"
      />
      <path
        d="M1208.84 -28.0991C1207.99 -29.2917 1205.96 -29.3854 1205.07 -27.8056L1197.46 -11.8551C1197.02 -11.0652 1197.07 -10.3144 1197.64 -9.60275L1212.71 11.8831C1213.29 12.845 1214.06 13.0366 1214.82 12.9779L1231.91 11.6472C1233.67 11.5102 1235.08 10.1415 1234.15 7.94789L1208.84 -28.0991Z"
        fill="#E3E3E3"
      />
      <path
        d="M1196.42 -2.45901C1195.32 -3.63202 1193.31 -3.47547 1192.65 -2.16548L1185.7 12.4751C1185.47 12.7449 1185.41 15.267 1187.94 15.3216L1203.78 14.0887C1205.04 13.9909 1206.7 12.6026 1205.54 10.6789L1196.42 -2.45901Z"
        fill="#E3E3E3"
      />
      <path
        d="M1174.19 -34.717L1164.49 -48.8168C1163.87 -50.2792 1161.57 -50.6036 1160.47 -48.5037L1129.36 16.3582C1128.47 17.938 1129.61 19.6115 1131.64 19.7052L1148.73 18.3745C1149.99 18.2767 1150.43 17.4868 1150.86 16.4466L1174.38 -32.2145C1174.59 -32.7346 1175.04 -33.5245 1174.19 -34.717Z"
        fill="#E3E3E3"
      />
      <path
        d="M1190.42 -11.3075L1180.46 -25.6379C1179.59 -27.0807 1177.32 -26.9046 1176.67 -25.5946L1157.53 14.4166C1156.87 15.7266 1157.76 17.4197 1159.79 17.5134L1177.14 16.1632C1177.87 15.8542 1178.61 15.5452 1179.05 14.7553L1190.58 -9.30541C1190.79 -9.82549 1191 -10.3456 1190.42 -11.3075Z"
        fill="#E3E3E3"
      />
      <path
        d="M1034.52 -49.02L1017.17 -47.6697C1015.92 -47.5719 1015.45 -47.0322 1015.03 -45.9921L991.082 3.70919C990.87 4.22928 990.426 5.01918 991.258 5.9615L1000.95 20.0613C1001.57 21.5237 1003.87 21.848 1004.97 19.7482L1036.76 -46.1735C1037.42 -47.4835 1036.53 -49.1765 1034.52 -49.02Z"
        fill="#E3E3E3"
      />
      <path
        d="M973.847 -9.80311C972.995 -10.9957 970.965 -11.0894 970.076 -9.50958L962.468 6.44096C962.024 7.23087 962.082 7.98164 962.643 8.69327L977.718 30.1792C978.299 31.141 979.072 31.3326 979.826 31.2739L996.918 29.9432C998.677 29.8062 1000.09 28.4375 999.158 26.2439L973.847 -9.80311Z"
        fill="#E3E3E3"
      />
      <path
        d="M961.43 15.8369C960.327 14.6639 958.316 14.8204 957.659 16.1304L950.707 30.771C950.476 31.0408 950.419 33.5629 952.952 33.6175L968.787 32.3846C970.043 32.2868 971.705 30.8985 970.544 28.9748L961.43 15.8369Z"
        fill="#E3E3E3"
      />
      <path
        d="M939.194 -16.4213L929.498 -30.521C928.879 -31.9834 926.578 -32.3078 925.477 -30.2079L894.367 34.654C893.478 36.2338 894.62 37.9073 896.65 38.001L913.742 36.6703C914.998 36.5725 915.443 35.7826 915.867 34.7424L939.389 -13.9187C939.601 -14.4388 940.045 -15.2287 939.194 -16.4213Z"
        fill="#E3E3E3"
      />
      <path
        d="M956.644 -0.155832C957.496 1.03674 959.526 1.13044 960.414 -0.449369L968.023 -16.3999C968.467 -17.1898 968.409 -17.9406 967.848 -18.6522L951.921 -41.3307C951.089 -42.273 950.587 -42.2339 949.833 -42.1752L932.741 -40.8445C931.484 -40.7466 930.093 -39.1277 930.984 -37.4346L956.644 -0.155832Z"
        fill="#E3E3E3"
      />
      <path
        d="M955.43 6.98831L945.464 -7.34213C944.593 -8.78496 942.331 -8.60885 941.674 -7.29886L922.537 32.7124C921.88 34.0224 922.771 35.7155 924.801 35.8092L942.144 34.4589C942.878 34.15 943.613 33.841 944.057 33.0511L955.586 8.99036C955.798 8.47028 956.011 7.9502 955.43 6.98831Z"
        fill="#E3E3E3"
      />
      <path
        d="M799.524 -30.7238L782.181 -29.3736C780.924 -29.2757 780.461 -28.7361 780.036 -27.6959L756.09 22.0053C755.878 22.5254 755.433 23.3153 756.265 24.2576L765.961 38.3574C766.58 39.8198 768.881 40.1442 769.982 38.0443L801.768 -27.8773C802.425 -29.1873 801.535 -30.8804 799.524 -30.7238Z"
        fill="#E3E3E3"
      />
      <path
        d="M738.854 8.49291C738.003 7.30033 735.973 7.20663 735.084 8.78644L727.476 24.737C727.031 25.5269 727.09 26.2777 727.651 26.9893L742.726 48.4752C743.306 49.4371 744.08 49.6286 744.834 49.5699L761.925 48.2392C763.685 48.1022 765.095 46.7335 764.166 44.5399L738.854 8.49291Z"
        fill="#E3E3E3"
      />
      <path
        d="M726.437 34.133C725.335 32.96 723.324 33.1166 722.667 34.4266L715.715 49.0671C715.483 49.3369 715.427 51.8591 717.96 51.9136L733.795 50.6808C735.051 50.5829 736.713 49.1947 735.552 47.2709L726.437 34.133Z"
        fill="#E3E3E3"
      />
      <path
        d="M740.01 0.597662L749.976 14.9281C750.866 16.6212 753.109 16.1948 753.765 14.8848L773.366 -25.6661C774.255 -27.2459 772.862 -28.8998 771.102 -28.7629L753.508 -27.393C753.006 -27.3539 752.02 -27.0254 751.595 -25.9852L739.854 -1.40439C739.893 -0.903874 739.7 -0.133537 740.01 0.597662Z"
        fill="#E3E3E3"
      />
      <path
        d="M704.201 1.87487L694.506 -12.2249C693.887 -13.6873 691.585 -14.0117 690.485 -11.9118L659.374 52.9501C658.486 54.5299 659.628 56.2035 661.658 56.2972L678.749 54.9665C680.006 54.8686 680.45 54.0787 680.875 53.0386L704.396 4.37743C704.609 3.85735 705.053 3.06744 704.201 1.87487Z"
        fill="#E3E3E3"
      />
      <path
        d="M721.652 18.1404C722.503 19.3329 724.534 19.4266 725.422 17.8468L733.031 1.89629C733.475 1.10638 733.416 0.355614 732.855 -0.356016L716.929 -23.0345C716.097 -23.9768 715.594 -23.9377 714.84 -23.879L697.749 -22.5483C696.492 -22.4504 695.101 -20.8315 695.991 -19.1384L721.652 18.1404Z"
        fill="#E3E3E3"
      />
      <path
        d="M720.438 25.2845L710.472 10.9541C709.601 9.51124 707.339 9.68736 706.682 10.9973L687.545 51.0086C686.888 52.3186 687.779 54.0117 689.809 54.1054L707.152 52.7551C707.886 52.4462 708.621 52.1372 709.065 51.3473L720.594 27.2866C720.806 26.7665 721.018 26.2464 720.438 25.2845Z"
        fill="#E3E3E3"
      />
      <path
        d="M564.532 -12.4278L547.189 -11.0775C545.932 -10.9796 545.468 -10.44 545.044 -9.39983L521.098 40.3014C520.885 40.8215 520.441 41.6114 521.273 42.5537L530.968 56.6535C531.588 58.1159 533.889 58.4403 534.99 56.3404L566.776 -9.58124C567.433 -10.8912 566.542 -12.5843 564.532 -12.4278Z"
        fill="#E3E3E3"
      />
      <path
        d="M503.862 26.789C503.011 25.5964 500.98 25.5027 500.092 27.0825L492.483 43.0331C492.039 43.823 492.098 44.5737 492.659 45.2854L507.734 66.7713C508.314 67.7331 509.088 67.9247 509.842 67.866L526.933 66.5353C528.693 66.3983 530.103 65.0296 529.174 62.836L503.862 26.789Z"
        fill="#E3E3E3"
      />
      <path
        d="M491.445 52.429C490.342 51.256 488.332 51.4125 487.675 52.7225L480.723 67.3631C480.491 67.6329 480.435 70.155 482.968 70.2096L498.802 68.9767C500.059 68.8789 501.721 67.4906 500.56 65.5669L491.445 52.429Z"
        fill="#E3E3E3"
      />
      <path
        d="M499.018 10.0449C499.87 11.2375 501.9 11.3312 502.789 9.75139L509.76 -4.63891C510.629 -6.46898 508.753 -7.83353 507.496 -7.73569L491.661 -6.50283C489.167 -6.05689 489.613 -3.57389 489.884 -3.34321L499.018 10.0449Z"
        fill="#E3E3E3"
      />
      <path
        d="M505.017 18.8937L514.983 33.2242C515.874 34.9173 518.116 34.4909 518.773 33.1809L538.374 -7.37001C539.262 -8.94982 537.869 -10.6038 536.11 -10.4668L518.516 -9.09694C518.013 -9.05781 517.027 -8.72928 516.602 -7.68911L504.861 16.8917C504.9 17.3922 504.707 18.1625 505.017 18.8937Z"
        fill="#E3E3E3"
      />
      <path
        d="M469.209 20.171L459.514 6.07118C458.894 4.60878 456.593 4.28439 455.492 6.38429L424.382 71.2462C423.494 72.826 424.635 74.4995 426.666 74.5932L443.757 73.2625C445.014 73.1647 445.458 72.3748 445.883 71.3346L469.404 22.6735C469.616 22.1534 470.061 21.3635 469.209 20.171Z"
        fill="#E3E3E3"
      />
      <path
        d="M486.66 36.4364C487.512 37.629 489.542 37.7227 490.43 36.1429L498.039 20.1923C498.483 19.4024 498.425 18.6516 497.864 17.94L481.937 -4.73846C481.105 -5.68077 480.603 -5.64164 479.849 -5.58293L462.757 -4.25223C461.5 -4.15439 460.109 -2.53543 461 -0.842345L486.66 36.4364Z"
        fill="#E3E3E3"
      />
      <path
        d="M485.445 43.5806L475.479 29.2502C474.608 27.8073 472.346 27.9834 471.69 29.2934L452.552 69.3047C451.896 70.6147 452.786 72.3078 454.816 72.4015L472.159 71.0512C472.894 70.7422 473.628 70.4333 474.073 69.6434L485.601 45.5826C485.814 45.0626 486.026 44.5425 485.445 43.5806Z"
        fill="#E3E3E3"
      />
      <path
        d="M329.539 5.86789L312.196 7.21816C310.939 7.31601 310.476 7.85566 310.051 8.89582L286.105 58.5971C285.893 59.1172 285.448 59.9071 286.28 60.8494L295.976 74.9491C296.595 76.4115 298.896 76.7359 299.997 74.636L331.783 8.71441C332.44 7.40442 331.55 5.71134 329.539 5.86789Z"
        fill="#E3E3E3"
      />
      <path
        d="M268.869 45.0847C268.017 43.8921 265.987 43.7984 265.099 45.3782L257.49 61.3288C257.046 62.1187 257.104 62.8695 257.665 63.5811L272.74 85.067C273.321 86.0289 274.094 86.2204 274.849 86.1617L291.94 84.831C293.699 84.694 295.11 83.3253 294.181 81.1317L268.869 45.0847Z"
        fill="#E3E3E3"
      />
      <path
        d="M256.453 70.7248C255.35 69.5518 253.339 69.7083 252.682 71.0183L245.73 85.6589C245.499 85.9287 245.442 88.4508 247.975 88.5054L263.81 87.2725C265.066 87.1747 266.728 85.7864 265.567 83.8626L256.453 70.7248Z"
        fill="#E3E3E3"
      />
      <path
        d="M264.026 28.3408C264.877 29.5333 266.907 29.627 267.796 28.0472L274.767 13.6569C275.636 11.8269 273.76 10.4623 272.503 10.5601L256.668 11.793C254.174 12.239 254.621 14.7219 254.891 14.9526L264.026 28.3408Z"
        fill="#E3E3E3"
      />
      <path
        d="M270.024 37.1895L279.991 51.5199C280.881 53.213 283.124 52.7866 283.78 51.4766L303.381 10.9257C304.27 9.3459 302.877 7.69195 301.117 7.82893L283.523 9.19877C283.02 9.23791 282.034 9.56644 281.61 10.6066L269.869 35.1874C269.908 35.6879 269.715 36.4583 270.024 37.1895Z"
        fill="#E3E3E3"
      />
      <path
        d="M234.216 38.4666L224.521 24.3668C223.901 22.9044 221.6 22.58 220.499 24.6799L189.389 89.5419C188.501 91.1217 189.643 92.7952 191.673 92.8889L208.764 91.5582C210.021 91.4604 210.465 90.6705 210.89 89.6303L234.411 40.9692C234.623 40.4491 235.068 39.6592 234.216 38.4666Z"
        fill="#E3E3E3"
      />
      <path
        d="M251.667 54.7321C252.519 55.9247 254.549 56.0184 255.438 54.4386L263.046 38.488C263.49 37.6981 263.432 36.9473 262.871 36.2357L246.945 13.5573C246.113 12.6149 245.61 12.6541 244.856 12.7128L227.764 14.0435C226.508 14.1413 225.116 15.7603 226.007 17.4534L251.667 54.7321Z"
        fill="#E3E3E3"
      />
      <path
        d="M250.453 61.8762L240.486 47.5457C239.615 46.1029 237.353 46.279 236.697 47.589L217.56 87.6003C216.903 88.9103 217.793 90.6034 219.824 90.6971L237.166 89.3468C237.901 89.0378 238.635 88.7289 239.08 87.939L250.608 63.8782C250.821 63.3582 251.033 62.8381 250.453 61.8762Z"
        fill="#E3E3E3"
      />
      <path
        d="M94.5473 24.1641L77.2045 25.5144C75.9478 25.6122 75.4841 26.1519 75.0593 27.192L51.1134 76.8933C50.901 77.4134 50.4568 78.2033 51.2888 79.1456L60.9841 93.2453C61.6037 94.7077 63.9047 95.0321 65.0056 92.9322L96.7919 27.0106C97.4485 25.7006 96.5581 24.0075 94.5473 24.1641Z"
        fill="#E3E3E3"
      />
      <path
        d="M33.8772 63.3808C33.0257 62.1883 30.9955 62.0946 30.107 63.6744L22.4985 79.6249C22.0543 80.4148 22.1127 81.1656 22.6738 81.8772L37.7487 103.363C38.3293 104.325 39.1029 104.517 39.8569 104.458L56.9483 103.127C58.7078 102.99 60.1184 101.621 59.189 99.4279L33.8772 63.3808Z"
        fill="#E3E3E3"
      />
      <path
        d="M21.461 89.0209C20.3582 87.8479 18.3474 88.0045 17.6908 89.3144L10.7389 103.955C10.5071 104.225 10.4506 106.747 12.9835 106.802L28.8182 105.569C30.0749 105.471 31.7369 104.083 30.5757 102.159L21.461 89.0209Z"
        fill="#E3E3E3"
      />
      <path
        d="M29.034 46.6368C29.8855 47.8294 31.9157 47.9231 32.8042 46.3433L39.7756 31.953C40.6446 30.1229 38.7683 28.7584 37.5116 28.8562L21.6768 30.0891C19.1829 30.535 19.6291 33.018 19.8999 33.2487L29.034 46.6368Z"
        fill="#E3E3E3"
      />
      <path
        d="M35.0329 55.4856L44.9991 69.8161C45.8895 71.5091 48.1321 71.0828 48.7887 69.7728L68.3897 29.2219C69.2781 27.642 67.885 25.9881 66.1256 26.1251L48.5315 27.4949C48.0288 27.5341 47.0429 27.8626 46.6181 28.9027L34.8771 53.4836C34.916 53.9841 34.7231 54.7544 35.0329 55.4856Z"
        fill="#E3E3E3"
      />
      <path
        d="M-0.775325 56.7627L-10.4706 42.6629C-11.0902 41.2005 -13.3913 40.8761 -14.4921 42.976L-45.6023 107.838C-46.4908 109.418 -45.349 111.091 -43.3188 111.185L-26.2273 109.854C-24.9706 109.756 -24.5264 108.967 -24.1016 107.926L-0.580482 59.2652C-0.368106 58.7452 0.0761304 57.9553 -0.775325 56.7627Z"
        fill="#E3E3E3"
      />
      <path
        d="M16.6758 73.0283C17.5273 74.2209 19.5575 74.3146 20.446 72.7348L28.0545 56.7842C28.4988 55.9943 28.4403 55.2436 27.8792 54.5319L11.9528 31.8535C11.1209 30.9111 10.6182 30.9503 9.86414 31.009L-7.2273 32.3397C-8.48403 32.4375 -9.87519 34.0565 -8.98477 35.7496L16.6758 73.0283Z"
        fill="#E3E3E3"
      />
      <path
        d="M15.4609 80.1723L5.49478 65.8418C4.62384 64.399 2.36174 64.5751 1.70513 65.8851L-17.4321 105.896C-18.0887 107.206 -17.1983 108.899 -15.1681 108.993L2.17474 107.643C2.90929 107.334 3.64384 107.025 4.08807 106.235L15.6168 82.1743C15.8292 81.6542 16.0415 81.1342 15.4609 80.1723Z"
        fill="#E3E3E3"
      />
    </g>
  </svg>