  <svg
    width="1366"
    height="305"
    viewBox="0 0 1366 305"
    fill="none"
    xmlns="http://www.w3.org/2000/svg"
  >
    <g opacity="0.8">
      <g opacity="0.503793">
        <mask
          id="mask0"
          mask-type="alpha"
          maskUnits="userSpaceOnUse"
          x="-11"
          y="0"
          width="1379"
          height="306"
        >
          <path
            fill-rule="evenodd"
            clip-rule="evenodd"
            d="M-10.2968 305.965H1367.38V0.735107H-10.2968V305.965Z"
            fill="white"
          />
        </mask>
        <g mask="url(#mask0)">
          <path
            fill-rule="evenodd"
            clip-rule="evenodd"
            d="M583.94 290.126C583.47 289.643 583.47 288.859 583.94 288.377C584.41 287.893 585.171 287.893 585.639 288.377L594.038 297.023C594.508 297.505 594.508 298.289 594.038 298.773C593.568 299.255 592.807 299.255 592.339 298.773L583.94 290.126ZM583.94 275.148C583.47 274.664 583.47 273.881 583.94 273.397C584.41 272.915 585.171 272.915 585.639 273.397L591.836 279.778C592.306 280.26 592.306 281.044 591.836 281.527C591.367 282.01 590.606 282.01 590.136 281.527L583.94 275.148ZM583.94 261.27C583.47 260.787 583.47 260.003 583.94 259.521C584.41 259.037 585.171 259.037 585.639 259.521L590.306 264.323C590.775 264.807 590.775 265.59 590.306 266.073C589.836 266.557 589.075 266.557 588.605 266.073L583.94 261.27ZM622.61 286.047C623.08 285.563 623.841 285.563 624.31 286.047L633.251 295.249C633.72 295.733 633.72 296.517 633.251 296.999C632.781 297.483 632.02 297.483 631.551 296.999L622.61 287.796C622.142 287.314 622.142 286.529 622.61 286.047ZM622.61 272.251C623.08 271.769 623.841 271.769 624.31 272.251L633.178 281.379C633.647 281.863 633.647 282.646 633.178 283.13C632.708 283.613 631.947 283.613 631.477 283.13L622.61 274.001C622.142 273.519 622.142 272.735 622.61 272.251ZM622.61 259.393C623.08 258.909 623.841 258.909 624.31 259.393L630.997 266.277C631.467 266.76 631.467 267.543 630.997 268.027C630.529 268.51 629.766 268.51 629.298 268.027L622.61 261.143C622.142 260.66 622.142 259.876 622.61 259.393ZM622.61 248.478C622.142 247.994 622.142 247.21 622.61 246.727C623.08 246.244 623.841 246.244 624.31 246.727L628.376 250.913C628.846 251.395 628.846 252.179 628.376 252.663C627.907 253.145 627.146 253.145 626.676 252.663L622.61 248.478ZM54.2004 91.9399H70.6894C71.3181 79.9614 80.924 70.4404 92.7176 70.4392C102.759 70.4404 111.219 77.3417 113.904 86.7847C116.168 82.2271 120.762 79.1026 126.075 79.1013C133.222 79.1026 139.077 84.7466 139.688 91.9399H157.781C158.444 91.9399 158.983 92.4943 158.983 93.1773C158.983 93.8617 158.444 94.4148 157.781 94.4148H138.547C137.882 94.4148 137.345 93.8617 137.345 93.1773C137.344 89.9699 136.085 87.0779 134.044 84.9743C132.001 82.8731 129.191 81.5775 126.075 81.5762C122.96 81.5775 120.149 82.8731 118.107 84.9743C116.066 87.0779 114.807 89.9699 114.806 93.1761V93.1773C114.806 93.8617 114.267 94.4148 113.604 94.4148C112.939 94.4148 112.402 93.8617 112.402 93.1773C112.401 87.5779 110.2 82.5204 106.637 78.8489C103.07 75.1811 98.1571 72.9153 92.7176 72.9141C87.2782 72.9153 82.364 75.1811 78.7987 78.8489C75.2345 82.5204 73.0335 87.5779 73.0335 93.1773C73.0335 93.8617 72.4949 94.4148 71.8314 94.4148H54.2004C53.5368 94.4148 52.9983 93.8617 52.9983 93.1773C52.9983 92.4943 53.5368 91.9399 54.2004 91.9399ZM230.019 135.69C230.019 135.007 230.556 134.453 231.221 134.453H247.71C248.338 122.473 257.943 112.952 269.737 112.952C279.778 112.952 288.238 119.855 290.924 129.296C293.187 124.74 297.781 121.614 303.095 121.614C310.241 121.614 316.098 127.259 316.708 134.453H334.8C335.464 134.453 336.002 135.007 336.002 135.69C336.002 136.373 335.464 136.928 334.8 136.928H315.566C314.903 136.928 314.364 136.373 314.364 135.69C314.364 132.483 313.104 129.59 311.063 127.487C309.021 125.386 306.21 124.089 303.095 124.089C299.979 124.089 297.17 125.386 295.126 127.487C293.085 129.59 291.826 132.481 291.825 135.689V135.69C291.825 136.373 291.288 136.928 290.623 136.928C289.959 136.928 289.421 136.373 289.421 135.69C289.421 130.091 287.22 125.032 283.656 121.362C280.09 117.693 275.176 115.427 269.737 115.427C264.297 115.427 259.384 117.693 255.818 121.362C252.255 125.032 250.054 130.091 250.053 135.689V135.69C250.053 136.373 249.515 136.928 248.851 136.928H231.221C230.556 136.928 230.019 136.373 230.019 135.69ZM725.699 208.181C725.699 207.497 726.237 206.944 726.901 206.944H740.524C741.189 206.944 741.726 207.497 741.726 208.181C741.726 208.864 741.189 209.419 740.524 209.419H726.901C726.237 209.419 725.699 208.864 725.699 208.181ZM497.302 171.295C497.302 170.612 497.841 170.058 498.504 170.058H512.128C512.792 170.058 513.33 170.612 513.33 171.295C513.33 171.98 512.792 172.533 512.128 172.533H498.504C497.841 172.533 497.302 171.98 497.302 171.295ZM210.735 70.1486C210.735 69.4643 211.273 68.9111 211.937 68.9111H225.56C226.225 68.9111 226.762 69.4643 226.762 70.1486C226.762 70.8317 226.225 71.386 225.56 71.386H211.937C211.273 71.386 210.735 70.8317 210.735 70.1486ZM116.323 149.634C116.323 148.949 116.86 148.396 117.525 148.396H128.344C129.007 148.396 129.546 148.949 129.546 149.634C129.546 150.317 129.007 150.871 128.344 150.871H117.525C116.86 150.871 116.323 150.317 116.323 149.634ZM19.878 223.664C19.3299 223.278 19.1904 222.509 19.5655 221.944L29.1822 207.482C29.5572 206.918 30.3049 206.773 30.8531 207.159C31.4012 207.545 31.5407 208.316 31.1656 208.879L21.5489 223.343C21.1739 223.906 20.4262 224.05 19.878 223.664ZM15.1134 261.201L53.5801 193.967C53.9167 193.378 54.6536 193.181 55.2258 193.527C55.798 193.875 55.9879 194.634 55.6513 195.221L17.1846 262.457C16.848 263.046 16.1111 263.242 15.5389 262.895C14.9667 262.549 14.7768 261.79 15.1134 261.201ZM107.269 212.897L113.28 202.223C113.613 201.631 114.348 201.43 114.923 201.773C115.496 202.115 115.692 202.873 115.359 203.464L109.349 214.138C109.016 214.73 108.28 214.932 107.707 214.589C107.132 214.246 106.936 213.489 107.269 212.897ZM4.12742 304.727C4.12742 305.41 3.59009 305.964 2.92533 305.964H-9.09552C-9.75907 305.964 -10.2976 305.41 -10.2976 304.727C-10.2976 304.044 -9.75907 303.49 -9.09552 303.49H2.92533C3.59009 303.49 4.12742 304.044 4.12742 304.727ZM375.579 299.073C374.02 297.467 373.06 295.261 373.06 292.812C373.06 290.363 374.02 288.156 375.579 286.55C377.139 284.945 379.282 283.958 381.662 283.957C384.041 283.958 386.183 284.945 387.743 286.55C389.302 288.156 390.263 290.363 390.263 292.812C390.263 295.261 389.302 297.467 387.743 299.073C386.183 300.677 384.041 301.666 381.662 301.667C379.282 301.666 377.139 300.677 375.579 299.073ZM289.262 292.812C289.262 290.363 290.223 288.156 291.782 286.55C293.342 284.945 295.484 283.958 297.864 283.957C300.243 283.958 302.385 284.945 303.947 286.55C305.505 288.156 306.465 290.363 306.465 292.812C306.465 295.261 305.505 297.467 303.947 299.073C302.385 300.677 300.243 301.666 297.864 301.667C295.484 301.666 293.342 300.677 291.782 299.073C290.223 297.467 289.262 295.261 289.262 292.812ZM241.726 264.361C241.726 277.039 241.738 289.833 241.739 302.294L204.938 302.36H152.917C152.757 302.36 152.606 302.396 152.467 302.454L135.125 302.485L193.078 201.089C193.805 200.665 193.985 200.151 193.887 199.674L204.064 181.868C204.44 182.233 205.006 182.333 205.476 182.054C206.052 181.712 206.249 180.955 205.917 180.363L205.424 179.486L222.517 149.579L258.854 211.812C256.085 212.893 253.521 214.487 251.273 216.473C246.973 220.271 243.779 225.457 242.365 231.117C241.751 233.575 241.612 236.099 241.611 238.583C241.612 240.948 241.738 243.28 241.738 245.485C241.73 251.764 241.726 258.048 241.726 264.361ZM368.383 231.249V250.976H363.971V267.58H365.174H368.383V280.497H310.271C310.062 280.497 309.874 280.567 309.702 280.664C309.59 280.559 309.488 280.442 309.374 280.34C306.378 277.678 302.302 276.231 297.864 276.231C293.425 276.231 289.348 277.678 286.354 280.34L286.171 280.52L274.953 280.497V231.249H368.383ZM366.376 265.105H368.383V253.451H366.376V265.105ZM313.726 287.561C313.295 285.871 312.596 284.33 311.669 282.972H367.857C366.929 284.33 366.23 285.871 365.799 287.561H313.726ZM282.001 287.561H274.953V282.972H284.058C283.131 284.33 282.432 285.871 282.001 287.561ZM370.788 267.58V250.976V240.153L390.199 248.011V250.976H385.542V265.031L386.718 265.057L386.834 265.061C387.433 265.081 390.287 265.213 393.356 265.851C394.889 266.169 396.475 266.616 397.841 267.214C399.048 267.74 400.051 268.393 400.737 269.116V284.03H406.13V287.561H397.524C396.786 284.664 395.263 282.193 393.171 280.34C390.177 277.678 386.101 276.231 381.663 276.231C377.524 276.231 373.713 277.502 370.788 279.83V267.58ZM1008.29 292.397C1008.29 289.948 1009.25 287.742 1010.81 286.136C1012.37 284.531 1014.52 283.543 1016.89 283.542C1019.27 283.543 1021.42 284.531 1022.98 286.136C1024.54 287.742 1025.49 289.948 1025.5 292.397C1025.49 294.846 1024.54 297.053 1022.98 298.659C1021.42 300.263 1019.27 301.251 1016.89 301.252C1014.52 301.251 1012.37 300.263 1010.81 298.659C1009.25 297.053 1008.29 294.846 1008.29 292.397ZM1092.09 292.397C1092.09 289.948 1093.05 287.742 1094.61 286.136C1096.17 284.531 1098.31 283.543 1100.69 283.542C1103.07 283.543 1105.21 284.531 1106.77 286.136C1108.33 287.742 1109.29 289.948 1109.29 292.397C1109.29 294.846 1108.33 297.053 1106.77 298.659C1105.21 300.263 1103.07 301.251 1100.69 301.252C1098.31 301.251 1096.17 300.263 1094.61 298.659C1093.05 297.053 1092.09 294.846 1092.09 292.397ZM1194 302.36V281.498L1209.38 297.331C1211.55 296.847 1211.55 296.064 1211.08 295.58L1194.29 278.295C1194.2 278.207 1194 266.959 1194 266.959L1207.14 280.487C1209.31 280.003 1209.31 279.22 1208.84 278.736L1194 263.459V254.238L1204.33 264.874C1206.5 264.391 1206.5 263.608 1206.03 263.124L1194 250.738V242.935C1194 242.252 1193.46 241.698 1192.8 241.698C1192.13 241.698 1191.6 242.252 1191.6 242.935V250.242L1179.96 262.216C1179.49 262.698 1179.49 263.482 1179.96 263.966C1180.43 264.448 1191.6 253.743 1191.6 253.743V263.927L1176.11 279.866C1175.64 280.348 1175.64 281.131 1176.11 281.615C1176.58 282.098 1191.6 267.427 1191.6 267.427V279.319L1176.11 295.257C1175.64 295.74 1175.64 296.524 1176.11 297.007C1176.58 297.491 1191.6 282.819 1191.6 282.819V302.36H1155.17V279.597L1168.33 293.152C1170.5 292.668 1170.5 291.885 1170.03 291.402L1155.17 276.097V267.262L1169.75 282.276C1171.92 281.792 1171.92 281.009 1171.45 280.526L1155.17 263.761V253.384L1166.59 265.15C1168.76 264.666 1168.76 263.883 1168.29 263.399L1155.17 249.885V240.609L1163.81 249.51C1165.98 249.027 1165.98 248.242 1165.51 247.76L1155.17 237.108V230.131C1155.17 229.448 1154.63 228.894 1153.96 228.894C1153.3 228.894 1152.76 229.448 1152.76 230.131V302.36H1105.93C1109.37 300.442 1111.7 296.7 1111.7 292.397C1111.7 286.139 1106.77 281.068 1100.69 281.067C1094.61 281.068 1089.69 286.139 1089.69 292.397C1089.69 296.7 1092.02 300.442 1095.45 302.36H1022.14C1025.57 300.442 1027.9 296.7 1027.9 292.397C1027.9 286.139 1022.97 281.068 1016.89 281.067C1010.82 281.068 1005.89 286.139 1005.89 292.397C1005.89 296.7 1008.22 300.442 1011.65 302.36H857.48V245.224C857.48 244.54 856.941 243.987 856.277 243.987C855.614 243.987 855.075 244.54 855.075 245.224V254.514L845.107 264.776C844.636 265.259 844.636 266.043 845.107 266.526C845.575 267.01 855.075 258.013 855.075 258.013V265.968L841.428 280.016C840.959 280.499 840.959 281.282 841.428 281.766C841.898 282.25 855.075 269.467 855.075 269.467V279.624L839.168 295.999C838.698 296.483 838.698 297.267 839.168 297.75C839.637 298.233 855.075 283.125 855.075 283.125V302.36H655.8V281.786L671.18 297.619C673.349 297.137 673.349 296.352 672.88 295.869L656.089 278.585L655.8 267.248L668.94 280.775C671.109 280.291 671.109 279.508 670.639 279.025L655.8 263.748V254.527L666.132 265.163C668.3 264.68 668.3 263.896 667.831 263.414L655.8 251.027V243.225C655.8 242.54 655.261 241.987 654.598 241.987C653.933 241.987 653.395 242.54 653.395 243.225V250.532L641.764 262.504C641.295 262.988 641.295 263.771 641.764 264.254C642.234 264.738 653.395 254.031 653.395 254.031V264.215L637.913 280.154C637.443 280.638 637.443 281.421 637.913 281.904C638.381 282.387 653.395 267.716 653.395 267.716V279.608L637.913 295.545C637.443 296.029 637.443 296.812 637.913 297.296C638.381 297.779 653.395 283.108 653.395 283.108V302.36H616.531V230.421C616.531 229.738 615.993 229.183 615.329 229.183C614.665 229.183 614.127 229.738 614.127 230.421V237.397L603.779 248.048C603.311 248.532 603.311 249.315 603.779 249.799C604.249 250.282 614.127 240.897 614.127 240.897V250.173L600.998 263.688C600.529 264.172 600.529 264.955 600.998 265.438C601.468 265.922 614.127 253.674 614.127 253.674V264.051L597.842 280.815C597.372 281.298 597.372 282.082 597.842 282.564C598.311 283.048 614.127 267.55 614.127 267.55V276.386L599.26 291.691C598.79 292.174 598.79 292.958 599.26 293.44C599.728 293.924 614.127 279.887 614.127 279.887V302.36H577.853V244.645C577.853 243.962 577.315 243.408 576.651 243.408C575.987 243.408 575.449 243.962 575.449 244.645V253.935L565.48 264.198C565.011 264.681 565.011 265.464 565.48 265.948C565.95 266.431 575.449 257.435 575.449 257.435V265.39L561.801 279.439C561.333 279.921 561.333 280.704 561.801 281.188C562.271 281.671 575.449 268.889 575.449 268.889V279.046L559.541 295.421C559.073 295.905 559.073 296.689 559.541 297.171C560.011 297.655 575.449 282.547 575.449 282.547V302.36H537.795V282.712L552.058 297.395C554.228 296.913 554.228 296.129 553.758 295.645L537.924 279.345L537.795 268.284L550.507 281.37C552.676 280.888 552.676 280.104 552.208 279.62L537.977 264.972L537.795 253.305L551.255 267.163C553.425 266.679 553.425 265.896 552.956 265.413L538.191 250.214C538.075 250.094 537.795 240.089 537.795 240.089L548.581 251.193C550.751 250.71 550.751 249.925 550.281 249.443L537.795 236.589V230.492C537.795 229.809 537.256 229.255 536.592 229.255C535.929 229.255 535.39 229.809 535.39 230.492V236.148L523.331 248.562C522.862 249.044 522.862 249.829 523.331 250.311C523.801 250.795 535.39 239.648 535.39 239.648V251.347L521.191 265.964C520.722 266.447 520.722 267.23 521.191 267.714C521.661 268.196 535.39 254.847 535.39 254.847V265.224L521.191 279.841C520.722 280.325 520.722 281.108 521.191 281.591C521.661 282.074 535.39 268.725 535.39 268.725V280.203L521.191 294.82C520.722 295.303 520.722 296.086 521.191 296.57C521.661 297.052 535.39 283.703 535.39 283.703V302.36H491.036V275.385L511.866 296.827C514.035 296.345 514.035 295.561 513.566 295.077L491.036 271.884V260.461L513.35 283.432C515.52 282.949 515.52 282.166 515.051 281.682L491.036 256.96V245.648L512.201 267.434C514.37 266.951 514.369 266.168 513.901 265.684L491.036 242.147V232.871L508.563 250.914C510.732 250.43 510.732 249.647 510.263 249.164L491.036 229.371V219.435L502.25 230.979C504.42 230.496 504.42 229.712 503.95 229.229L491.036 215.934V210.719C491.036 210.036 490.497 209.482 489.834 209.482C489.17 209.482 488.632 210.036 488.632 210.719V216.374L476.572 228.788C476.103 229.271 476.103 230.056 476.572 230.538C477.042 231.022 488.632 219.875 488.632 219.875V229.592L470.581 248.173C470.112 248.656 470.112 249.439 470.581 249.923C471.051 250.406 488.632 233.091 488.632 233.091V243.553C488.264 243.492 468.013 264.032 468.013 264.032C467.543 264.516 467.543 265.299 468.013 265.782C468.482 266.266 488.632 246.308 488.632 246.308V257.518C488.296 257.495 468.013 278.131 468.013 278.131C467.543 278.613 467.543 279.397 468.013 279.88C468.482 280.363 488.632 260.405 488.632 260.405V271.884L465.874 295.311C465.404 295.795 465.404 296.579 465.874 297.061C466.343 297.545 488.632 275.385 488.632 275.385V302.36H387.569C390.63 300.349 392.667 296.828 392.667 292.812C392.667 286.554 387.741 281.483 381.662 281.482C375.583 281.483 370.657 286.554 370.655 292.812C370.655 296.828 372.692 300.349 375.755 302.36H303.771C306.833 300.349 308.869 296.828 308.869 292.812C308.869 286.554 303.943 281.483 297.864 281.482C291.785 281.483 286.859 286.554 286.858 292.812C286.858 296.828 288.894 300.349 291.957 302.36H244.144C244.143 289.876 244.131 277.06 244.131 264.361C244.131 258.049 244.135 251.767 244.143 245.573C244.142 243.186 244.016 240.856 244.016 238.583C244.016 236.196 244.156 233.878 244.694 231.732C245.974 226.593 248.912 221.815 252.839 218.352C256.767 214.884 261.655 212.736 266.864 212.738C277.28 213.386 283.299 216.666 287.166 220.248C289.097 222.039 290.487 223.914 291.437 225.571C292.146 226.806 292.608 227.931 292.862 228.774H272.551V281.733V290.036H281.57C281.526 290.532 281.495 291.035 281.497 291.55C281.497 292.234 282.034 292.787 282.699 292.787C283.362 292.787 283.901 292.234 283.901 291.55C283.908 287.576 285.435 284.442 287.927 282.212C290.421 279.99 293.927 278.706 297.864 278.706C301.8 278.706 305.306 279.99 307.801 282.212C310.293 284.442 311.819 287.576 311.828 291.55C311.828 292.234 312.365 292.787 313.03 292.787C313.693 292.787 314.232 292.234 314.232 291.55C314.232 291.035 314.202 290.532 314.157 290.036H365.367C365.323 290.532 365.293 291.035 365.294 291.55C365.294 292.234 365.831 292.787 366.496 292.787C367.16 292.787 367.698 292.234 367.698 291.55C367.699 290.797 367.772 290.084 367.879 289.391C367.976 289.213 368.047 289.018 368.047 288.799C368.427 286.688 369.259 285.023 370.403 283.617C370.873 283.052 371.277 282.613 371.724 282.212C374.218 279.99 377.725 278.706 381.662 278.706C385.597 278.706 389.104 279.99 391.599 282.212C394.091 284.442 395.617 287.576 395.625 291.55C395.625 292.234 396.162 292.787 396.827 292.787C397.491 292.787 398.029 292.234 398.029 291.55C398.029 291.035 397.999 290.532 397.955 290.036H408.533V281.555H403.14V268.165C401.742 266.448 400.165 265.512 398.462 264.801C395.904 263.743 393.009 263.206 390.73 262.911C389.61 262.769 387.945 253.451 387.945 253.451H392.602V246.324L370.788 237.494V228.774H295.359L295.2 228.152C294.865 227.046 294.328 225.749 293.507 224.314C291.908 221.521 289.239 218.257 285.137 215.568C282.316 213.718 278.803 212.165 274.537 211.211L260.414 185.731C258.198 185.608 257.997 186.364 258.326 186.958L271.457 210.647C267.794 210.277 267.328 210.263 266.864 210.263C264.921 210.263 263.033 210.55 261.21 211.042L222.496 144.737L204.044 177.022L166.03 109.248L116.495 193.955C116.152 194.541 116.336 195.302 116.905 195.655C117.473 196.007 165.987 114.121 165.987 114.121L202.642 179.474L192.445 197.315L174.759 170.425L127.31 252.534C126.971 253.122 127.158 253.88 127.728 254.23C128.299 254.579 174.89 175.04 174.89 175.04L191.095 199.677L132.516 302.171L103.257 302.542L115.365 280.589C115.692 279.994 115.49 279.239 114.913 278.902C114.335 278.565 100.49 302.547 100.49 302.547L58.6805 302.621L98.2399 231.687C98.3709 231.537 102.94 223.26 102.94 223.26C103.271 222.667 103.072 221.91 102.496 221.569C101.921 221.229 97.3179 228.369 97.3179 228.369L56.6249 157.525L32.3476 199.295C32.0062 199.882 32.1913 200.641 32.7611 200.993C33.3309 201.344 56.6129 162.366 56.6129 162.366L95.9415 230.836L55.9061 302.627L37.442 302.659L73.6837 238.943C74.0191 238.353 73.8267 237.594 73.2546 237.249C72.6812 236.904 42.3008 289.219 42.3008 289.219C42.1301 289.123 25.3647 289.052 25.3647 289.052C24.7011 289.052 24.1626 289.607 24.1626 290.29C24.1626 290.974 24.7011 291.527 25.3647 291.527H40.9882L34.6544 302.664L13.7429 302.701C13.0781 302.703 12.5408 303.258 12.542 303.941C12.5432 304.624 13.083 305.178 13.7465 305.176L100.901 305.02C101.101 305.067 204.955 304.835 204.955 304.835H488.686C488.812 305.38 489.265 305.795 489.834 305.795C490.402 305.795 490.855 305.38 490.982 304.835H1366.18C1366.84 304.835 1367.38 304.282 1367.38 303.597C1367.38 302.914 1366.84 302.36 1366.18 302.36H1194ZM385.701 269.851H381.105C380.442 269.851 379.903 269.298 379.903 268.613C379.903 267.93 380.442 267.376 381.105 267.376H385.701C386.366 267.376 386.903 267.93 386.903 268.613C386.903 269.298 386.366 269.851 385.701 269.851ZM297.864 294.854C296.768 294.852 295.882 293.939 295.88 292.812C295.882 291.684 296.768 290.771 297.864 290.769C298.959 290.771 299.846 291.684 299.848 292.812C299.846 293.939 298.959 294.852 297.864 294.854ZM297.864 288.294C295.44 288.295 293.477 290.316 293.475 292.812C293.477 295.306 295.44 297.328 297.864 297.328C300.288 297.328 302.252 295.306 302.252 292.812C302.252 290.316 300.288 288.295 297.864 288.294ZM381.661 294.854C380.565 294.852 379.679 293.939 379.677 292.812C379.679 291.684 380.565 290.771 381.661 290.769C382.756 290.771 383.644 291.684 383.645 292.812C383.644 293.939 382.756 294.852 381.661 294.854ZM381.662 288.294C379.238 288.295 377.275 290.316 377.273 292.812C377.275 295.306 379.238 297.328 381.662 297.328C384.086 297.328 386.05 295.306 386.05 292.812C386.05 290.316 384.086 288.295 381.662 288.294ZM376.425 262.331H380.779V253.452H376.425V262.331ZM383.183 250.976H374.022V264.806H375.224H383.183V250.976ZM160.018 292.947C160.018 293.63 159.479 294.184 158.816 294.184H157.933C157.269 294.184 156.731 293.63 156.731 292.947C156.731 292.262 157.269 291.709 157.933 291.709H158.816C159.479 291.709 160.018 292.262 160.018 292.947ZM863.566 288.955C864.034 288.471 864.795 288.471 865.265 288.955L873.664 297.601C874.133 298.083 874.133 298.867 873.664 299.35C873.194 299.834 872.433 299.834 871.963 299.35L863.566 290.704C863.096 290.222 863.096 289.439 863.566 288.955ZM863.566 273.975C864.034 273.493 864.795 273.493 865.265 273.975L871.462 280.356C871.932 280.838 871.932 281.621 871.462 282.105C870.993 282.589 870.231 282.589 869.762 282.105L863.566 275.726C863.096 275.242 863.096 274.459 863.566 273.975ZM863.566 261.848C863.096 261.366 863.096 260.582 863.566 260.099C864.034 259.615 864.795 259.615 865.265 260.099L869.931 264.901C870.401 265.385 870.401 266.168 869.931 266.652C869.462 267.135 868.701 267.135 868.231 266.652L863.566 261.848ZM1136.04 296.711C1135.57 296.227 1135.57 295.444 1136.04 294.961L1144.98 285.757C1145.45 285.274 1146.21 285.274 1146.68 285.757C1147.15 286.241 1147.15 287.024 1146.68 287.507L1137.74 296.711C1137.27 297.194 1136.51 297.194 1136.04 296.711ZM1136.12 282.84C1135.65 282.357 1135.65 281.573 1136.12 281.091L1144.98 271.963C1145.45 271.479 1146.21 271.479 1146.68 271.963C1147.15 272.446 1147.15 273.229 1146.68 273.713L1137.81 282.84C1137.34 283.324 1136.58 283.324 1136.12 282.84ZM1138.3 267.737C1137.83 267.255 1137.83 266.471 1138.3 265.988L1144.98 259.104C1145.45 258.621 1146.21 258.621 1146.68 259.104C1147.15 259.587 1147.15 260.371 1146.68 260.855L1140 267.737C1139.53 268.221 1138.77 268.221 1138.3 267.737ZM1140.92 252.373C1140.45 251.89 1140.45 251.107 1140.92 250.623L1144.98 246.438C1145.45 245.954 1146.21 245.954 1146.68 246.438C1147.15 246.921 1147.15 247.705 1146.68 248.188L1142.62 252.373C1142.15 252.857 1141.39 252.857 1140.92 252.373ZM1167.98 204.106C1167.98 203.423 1168.52 202.869 1169.18 202.869H1187.28C1187.89 195.676 1193.74 190.032 1200.89 190.03C1206.2 190.032 1210.8 193.156 1213.06 197.714C1215.75 188.271 1224.21 181.369 1234.25 181.368C1246.04 181.369 1255.65 190.89 1256.27 202.869H1272.76C1273.43 202.869 1273.97 203.423 1273.97 204.106C1273.97 204.791 1273.43 205.344 1272.76 205.344H1255.13C1254.47 205.344 1253.93 204.791 1253.93 204.106C1253.93 198.507 1251.73 193.449 1248.17 189.778C1244.6 186.11 1239.69 183.844 1234.25 183.843C1228.81 183.844 1223.89 186.11 1220.33 189.778C1216.76 193.449 1214.56 198.507 1214.56 204.106C1214.56 204.791 1214.02 205.344 1213.36 205.344C1212.7 205.344 1212.16 204.791 1212.16 204.106C1212.16 200.899 1210.9 198.007 1208.86 195.903C1206.81 193.802 1204 192.506 1200.89 192.505C1197.77 192.506 1194.96 193.802 1192.92 195.903C1190.88 198.007 1189.62 200.899 1189.62 204.106C1189.62 204.791 1189.08 205.344 1188.42 205.344H1169.18C1168.52 205.344 1167.98 204.791 1167.98 204.106ZM913.501 97.7058C913.501 97.0227 914.04 96.4683 914.703 96.4683H932.796C933.406 89.275 939.262 83.631 946.408 83.6298C951.721 83.631 956.316 86.7556 958.579 91.3119C961.265 81.8701 969.725 74.9689 979.766 74.9676C991.56 74.9689 1001.17 84.4898 1001.79 96.4683H1018.28C1018.95 96.4683 1019.49 97.0227 1019.49 97.7058C1019.49 98.3889 1018.95 98.9432 1018.28 98.9432H1000.65C999.989 98.9432 999.45 98.3889 999.45 97.7058C999.45 92.1063 997.249 87.0489 993.685 83.3774C990.12 79.7083 985.206 77.4438 979.766 77.4425C974.327 77.4438 969.414 79.7083 965.847 83.3774C962.284 87.0489 960.083 92.1063 960.082 97.7058C960.082 98.3889 959.545 98.9432 958.88 98.9432C958.216 98.9432 957.678 98.3889 957.678 97.7058C957.678 94.4983 956.418 91.6064 954.377 89.5027C952.334 87.4015 949.524 86.1059 946.408 86.1047C943.292 86.1059 940.483 87.4015 938.44 89.5027C936.398 91.6064 935.14 94.4983 935.139 97.7058C935.139 98.3889 934.601 98.9432 933.937 98.9432H914.703C914.04 98.9432 913.501 98.3889 913.501 97.7058ZM1100.14 266.961H1104.73C1105.4 266.961 1105.93 267.516 1105.93 268.199C1105.93 268.883 1105.4 269.436 1104.73 269.436H1100.14C1099.47 269.436 1098.94 268.883 1098.94 268.199C1098.94 267.516 1099.47 266.961 1100.14 266.961ZM1014.91 292.397C1014.91 291.27 1015.8 290.357 1016.89 290.354C1017.99 290.357 1018.88 291.27 1018.88 292.397C1018.88 293.524 1017.99 294.438 1016.89 294.439C1015.8 294.438 1014.91 293.524 1014.91 292.397ZM1021.28 292.397C1021.28 289.901 1019.32 287.881 1016.89 287.879C1014.47 287.881 1012.51 289.901 1012.51 292.397C1012.51 294.892 1014.47 296.914 1016.89 296.914C1019.32 296.914 1021.28 294.892 1021.28 292.397ZM1098.71 292.397C1098.71 291.27 1099.6 290.357 1100.69 290.354C1101.79 290.357 1102.67 291.27 1102.68 292.397C1102.67 293.524 1101.79 294.438 1100.69 294.439C1099.6 294.438 1098.71 293.524 1098.71 292.397ZM1105.08 292.397C1105.08 289.901 1103.12 287.881 1100.69 287.879C1098.27 287.881 1096.3 289.901 1096.3 292.397C1096.3 294.892 1098.27 296.914 1100.69 296.914C1103.12 296.914 1105.08 294.892 1105.08 292.397ZM1095.46 261.916H1099.81V253.038H1095.46V261.916ZM1102.21 264.391V250.561H1093.05V264.391H1094.25H1102.21ZM1087.41 230.834V250.561H1083V267.166H1084.21H1087.41V280.082H1029.3C1029.09 280.082 1028.9 280.153 1028.73 280.249C1028.62 280.144 1028.52 280.028 1028.4 279.925C1025.41 277.262 1021.33 275.817 1016.89 275.817C1012.46 275.817 1008.38 277.262 1005.38 279.925C1005.32 279.982 1005.27 280.047 1005.2 280.106C1005.16 280.102 1005.13 280.082 1005.09 280.082H993.985V230.834H1087.41ZM1109.23 247.597V250.562H1104.57V264.616L1105.75 264.642L1105.86 264.646C1106.46 264.666 1109.32 264.798 1112.38 265.437C1113.92 265.755 1115.5 266.202 1116.87 266.799C1118.08 267.325 1119.08 267.979 1119.77 268.701V283.614H1125.16V287.147H1116.55C1115.81 284.25 1114.29 281.779 1112.2 279.925C1109.21 277.262 1105.13 275.817 1100.69 275.817C1096.55 275.817 1092.74 277.087 1089.82 279.415V267.166V250.562V239.739L1109.23 247.597ZM1085.41 264.691H1087.41V253.036H1085.41V264.691ZM1032.76 287.147C1032.33 285.456 1031.63 283.916 1030.7 282.557H1086.89C1085.96 283.916 1085.26 285.456 1084.83 287.147H1032.76ZM1001.03 287.147H993.985V282.557H1003.09C1002.16 283.916 1001.46 285.456 1001.03 287.147ZM991.581 281.319V289.622H1000.6C1000.56 290.118 1000.53 290.62 1000.53 291.135C1000.53 291.819 1001.07 292.372 1001.73 292.372C1002.39 292.372 1002.93 291.819 1002.93 291.135C1002.94 287.161 1004.46 284.027 1006.96 281.797C1009.45 279.576 1012.96 278.291 1016.89 278.291C1020.83 278.291 1024.34 279.576 1026.83 281.797C1029.32 284.027 1030.85 287.161 1030.86 291.135C1030.86 291.819 1031.4 292.372 1032.06 292.372C1032.72 292.372 1033.26 291.819 1033.26 291.135C1033.26 290.62 1033.23 290.118 1033.19 289.622H1084.4C1084.35 290.118 1084.32 290.62 1084.32 291.135C1084.32 291.819 1084.86 292.372 1085.53 292.372C1086.19 292.372 1086.73 291.819 1086.73 291.135C1086.73 290.383 1086.8 289.67 1086.91 288.977C1087.01 288.799 1087.08 288.603 1087.08 288.384C1087.08 288.319 1087.05 288.262 1087.04 288.198C1087.46 286.273 1088.29 284.607 1089.43 283.202C1089.47 283.169 1089.49 283.131 1089.52 283.095C1089.9 282.637 1090.31 282.198 1090.75 281.797C1093.25 279.576 1096.75 278.291 1100.69 278.291C1104.63 278.291 1108.13 279.576 1110.63 281.797C1113.12 284.027 1114.65 287.161 1114.65 291.135C1114.65 291.819 1115.19 292.372 1115.86 292.372C1116.52 292.372 1117.06 291.819 1117.06 291.135C1117.06 290.62 1117.03 290.118 1116.99 289.622H1127.56V281.139H1122.17V267.751L1121.89 267.407C1120.77 266.033 1119.2 265.098 1117.49 264.386C1114.94 263.328 1112.04 262.791 1109.76 262.497C1108.64 262.354 1107.67 262.273 1106.97 262.227V253.036H1111.63V245.91L1089.82 237.079V228.359H991.581V281.319Z"
            fill="white"
          />
        </g>
      </g>
    </g>
  </svg>